# xmcd CD database file
#
# Track frame offsets:
#	150
#	10350
#	20090
#	31537
#	41417
#	52862
#	64960
#	77880
#	90517
#	100995
#	113585
#	124790
#	137772
#	149570
#	160832
#	181830
#	192525
#	204882
#	217905
#	231067
#
# Disc length: 3293 seconds
#
# Revision: 1
# Processed by: cddbd v1.5PL3 Copyright (c) Steve Scherf et al.
# Submitted via: CDex 1.50
#
DISCID=090cdb14
DTITLE=Various Artist - Chicago Blues Guitar Killers
DYEAR=1900
DGENRE=Blues
TTITLE0=Guitar Shorty - You Dont' Treat Me Right
TTITLE1=Guitar Shorty - Irma Lee
TTITLE2=Clarence Jolly with Guitar Shorty - Changing Love
TTITLE3=Clarence Jolly with Guitar Shorty - Don't Leave Me
TTITLE4=Arbee Stidham with Wayne Bennett - Please Let It Be Me
TTITLE5=Arbee Stidham with Wayne Bennett - Meet Me Half Way
TTITLE6=Morris Pejoe with Wayne Bennett - Maybe Blues
TTITLE7=Morris Pejoe with Wayne Bennett - Screaming and Crying
TTITLE8=Ricky Allen with Earl Hooker - You'd Better Be Sure
TTITLE9=Ricky Allen with Earl Hooker - Little By Little
TTITLE10=Ricky Allen with Earl Hooker - Don't You Ever Forget It
TTITLE11=A.C. Reed with Earl Hooker - I Stay Mad
TTITLE12=A.C. Reed with Earl Hooker - I Wanna Be Free
TTITLE13=Reggie Boyd with Earl Hooker - Nothing But Good
TTITLE14=Billy "The Kid" Emerson with Matt Murphy - Do The Chicken
TTITLE15=Big Moose with Fred Roulette - Does Like To Boogaloo
TTITLE16=Jesse Fortune with Buddy Guy - Good Things
TTITLE17=Jesse Fortune with Buddy Guy - Too Many Cooks
TTITLE18=Jesse Fortune with Buddy Guy - Heavy Heart Beat
TTITLE19=Jesse Fortune with Buddy Guy - Heavy Heart Beat (alt. take)
EXTD=
EXTT0=
EXTT1=
EXTT2=
EXTT3=
EXTT4=
EXTT5=
EXTT6=
EXTT7=
EXTT8=
EXTT9=
EXTT10=
EXTT11=
EXTT12=
EXTT13=
EXTT14=
EXTT15=
EXTT16=
EXTT17=
EXTT18=
EXTT19=
PLAYORDER=
